REM MD5 795c5b10f14a6033681975d311258842
FILE "Interactive CD Sampler Disc Volume 7 (USA) (Rev 1).bin" BINARY
  TRACK 01 MODE2/2352
    INDEX 01 00:00:00
  TRACK 02 AUDIO
    INDEX 00 63:20:42
    INDEX 01 63:22:42
  TRACK 03 AUDIO
    INDEX 00 66:01:36
    INDEX 01 66:03:36
  TRACK 04 AUDIO
    INDEX 00 67:56:63
    INDEX 01 67:58:63
  TRACK 05 AUDIO
    INDEX 00 69:02:56
    INDEX 01 69:04:56
  TRACK 06 AUDIO
    INDEX 00 69:10:22
    INDEX 01 69:12:22
REM LEADOUT 69:18:18
